HIERARCHY
ROOT Hips
{
	OFFSET 0.000000 0.000000 0.000000
	CHANNELS 6 Xposition Yposition Zposition Zrotation Yrotation Xrotation 
	JOINT LeftUpLeg_virtual
	{
		OFFSET 0.000000 0.000000 0.000000
		CHANNELS 3 Zrotation Yrotation Xrotation
		JOINT LeftUpLeg
		{
			OFFSET 10.205400 -3.823500 0.155100
			CHANNELS 3 Zrotation Yrotation Xrotation
			JOINT LeftLeg
			{
				OFFSET 0.708757 -12.982077 0.567790
				CHANNELS 3 Zrotation Yrotation Xrotation
				JOINT LeftFoot
				{
					OFFSET -0.708756 -10.717838 -2.184338
					CHANNELS 3 Zrotation Yrotation Xrotation
					JOINT LeftToeBase
					{
						OFFSET 0.108149 -7.191104 7.560241
						CHANNELS 3 Zrotation Yrotation Xrotation
						End Site
						{
							OFFSET 0.000000 0.000000 0.000000
						}
					}
				}
			}
		}
	}
	JOINT RightUpLeg_virtual
	{
		OFFSET 0.000000 0.000000 0.000000
		CHANNELS 3 Zrotation Yrotation Xrotation
		JOINT RightUpLeg
		{
			OFFSET -10.205400 -3.823500 0.005500
			CHANNELS 3 Zrotation Yrotation Xrotation
			JOINT RightLeg
			{
				OFFSET -0.708756 -12.982134 0.610632
				CHANNELS 3 Zrotation Yrotation Xrotation
				JOINT RightFoot
				{
					OFFSET 0.708754 -10.717769 -1.945823
					CHANNELS 3 Zrotation Yrotation Xrotation
					JOINT RightToeBase
					{
						OFFSET -0.108140 -7.191069 7.372968
						CHANNELS 3 Zrotation Yrotation Xrotation
						End Site
						{
							OFFSET 0.000000 0.000000 0.000000
						}
					}
				}
			}
		}
	}
	JOINT Spine_virtual
	{
		OFFSET 0.000000 0.000000 0.000000
		CHANNELS 3 Zrotation Yrotation Xrotation
		JOINT Spine
		{
			OFFSET 0.000000 6.876099 0.125700
			CHANNELS 3 Zrotation Yrotation Xrotation
			JOINT Spine1
			{
				OFFSET 0.000000 8.022060 0.146608
				CHANNELS 3 Zrotation Yrotation Xrotation
				JOINT Spine2
				{
					OFFSET 0.000000 9.168068 0.167552
					CHANNELS 3 Zrotation Yrotation Xrotation
					JOINT Neck_virtual
					{
						OFFSET 0.000000 0.000000 0.000000
						CHANNELS 3 Zrotation Yrotation Xrotation
						JOINT Neck
						{
							OFFSET 0.000000 10.314075 0.188496
							CHANNELS 3 Zrotation Yrotation Xrotation
							JOINT Head
							{
								OFFSET 0.000000 7.643700 -2.377400
								CHANNELS 3 Zrotation Yrotation Xrotation
								End Site
								{
									OFFSET 0.000000 0.000000 0.000000
								}
							}
						}
					}
					JOINT LeftShoulder_virtual
					{
						OFFSET 0.000000 0.000000 0.000000
						CHANNELS 3 Zrotation Yrotation Xrotation
						JOINT LeftShoulder
						{
							OFFSET 4.392200 8.824978 0.174984
							CHANNELS 3 Zrotation Yrotation Xrotation
							JOINT LeftArm
							{
								OFFSET 8.771219 -2.981674 -0.026999
								CHANNELS 3 Zrotation Yrotation Xrotation
								JOINT LeftForeArm
								{
									OFFSET 8.512804 0.000000 -0.000000
									CHANNELS 3 Zrotation Yrotation Xrotation
									JOINT LeftHand
									{
										OFFSET 18.484802 0.000000 -0.000000
										CHANNELS 3 Zrotation Yrotation Xrotation
										End Site
										{
											OFFSET 0.000000 0.000000 0.000000
										}
									}
								}
							}
						}
					}
					JOINT RightShoulder_virtual
					{
						OFFSET 0.000000 0.000000 0.000000
						CHANNELS 3 Zrotation Yrotation Xrotation
						JOINT RightShoulder
						{
							OFFSET -4.392200 8.824993 0.141379
							CHANNELS 3 Zrotation Yrotation Xrotation
							JOINT RightArm
							{
								OFFSET -8.771282 -2.981682 -0.094208
								CHANNELS 3 Zrotation Yrotation Xrotation
								JOINT RightForeArm
								{
									OFFSET -8.494598 0.000000 0.000000
									CHANNELS 3 Zrotation Yrotation Xrotation
									JOINT RightHand
									{
										OFFSET -18.483803 0.000000 0.000001
										CHANNELS 3 Zrotation Yrotation Xrotation
										End Site
										{
											OFFSET 0.000000 0.000000 0.000000
										}
									}
								}
							}
						}
					}
				}
			}
		}
	}
}
MOTION
Frames: 9
Frame Time: 0.033333
3.727764 36.184799 -2.610364 -179.903112 3.184332 179.949858 -2.067123 -1.930059 10.617258 -9.745725 -4.030499 -21.972693 8.514468 7.272499 12.742565 -5.951258 -0.778726 12.162444 0.000000 0.000000 0.000000 2.900164 -0.379550 8.669102 0.649920 2.635953 -12.874814 -8.158051 0.074018 13.344669 7.805831 5.884572 7.836422 0.000000 0.000000 0.000000 1.538844 0.948415 1.526442 -5.096600 0.619018 -5.606166 1.536547 -3.861120 4.983831 0.002846 -0.008391 -0.013777 1.180480 -2.209504 7.111616 -1.934180 2.909955 7.235183 0.000000 0.000000 0.000000 2.395692 -1.354112 4.171889 3.272391 -1.707259 -5.810259 -20.661204 29.953542 -27.983113 -4.704406 -34.026978 -2.738387 0.000000 0.000000 0.000000 -0.653665 -0.708438 3.984355 7.119371 -3.993814 -9.573203 28.813129 -33.551928 -35.402677 -1.474138 35.820609 -3.723900 0.000000 0.000000 0.000000 
3.569846 36.190567 -2.484394 -179.990921 3.360971 179.938123 -2.268530 -1.881801 10.392674 -10.094284 -4.040764 -21.956478 8.491027 7.789721 12.438755 -6.064263 -0.860918 12.529688 0.000000 0.000000 0.000000 2.709135 -0.433818 8.595242 0.414192 2.875945 -13.153120 -8.202267 0.160412 13.516148 7.916113 5.834544 8.035556 0.000000 0.000000 0.000000 1.551303 0.938239 1.604348 -5.044812 0.660541 -5.572100 1.487756 -3.873373 4.991305 -0.017676 -0.026915 -0.043306 1.202643 -2.315793 7.135511 -1.923077 2.927689 7.278626 0.000000 0.000000 0.000000 2.409226 -1.340917 4.247628 3.257918 -1.586311 -5.891417 -20.833588 30.226828 -28.166918 -4.728867 -33.908624 -2.725219 0.000000 0.000000 0.000000 -0.612917 -0.726836 3.985524 7.055347 -3.969968 -9.538725 28.687631 -33.490562 -35.319492 -1.463449 35.740635 -3.715553 0.000000 0.000000 0.000000 
3.387125 36.199440 -2.349544 -179.890954 3.976572 179.940842 -2.333613 -1.697790 10.207380 -10.478622 -3.744941 -21.859921 8.637927 8.044612 12.144281 -6.002130 -0.732276 12.831970 0.000000 0.000000 0.000000 2.751163 -0.261679 8.409941 0.077094 3.108677 -13.574787 -8.201210 0.668165 13.733710 8.094959 5.926365 8.421276 0.000000 0.000000 0.000000 1.688290 0.988093 1.719104 -4.846115 0.798436 -5.554265 1.457918 -3.824353 4.995037 0.012752 0.015288 -0.022239 1.129033 -2.153686 7.106805 -1.988604 2.961687 7.351184 0.000000 0.000000 0.000000 2.283147 -1.373367 4.264590 3.180435 -1.387888 -5.922196 -20.985903 30.612047 -28.263528 -4.662597 -33.710901 -2.759178 0.000000 0.000000 0.000000 -0.761247 -0.734084 3.919344 6.971782 -3.937887 -9.509301 28.397136 -33.347770 -35.050017 -1.512177 35.765988 -3.762243 0.000000 0.000000 0.000000 
3.224798 36.213223 -2.248355 -179.870491 4.544217 179.961893 -2.446391 -1.655425 10.021193 -10.826915 -3.435334 -21.782966 8.824844 7.993509 12.004436 -5.741535 -0.447012 12.905857 0.000000 0.000000 0.000000 2.776906 -0.198010 8.194812 -0.226239 3.054546 -14.130366 -8.175124 1.389679 14.148945 8.298490 6.056082 8.752113 0.000000 0.000000 0.000000 1.714136 1.007748 1.784883 -4.634695 0.847830 -5.564803 1.375437 -3.871774 4.999430 -0.005326 -0.017288 0.007634 1.033119 -2.161932 7.073073 -2.033937 3.052754 7.396281 0.000000 0.000000 0.000000 2.202674 -1.296129 4.211750 3.152494 -1.101268 -5.913526 -21.103618 30.948820 -28.545599 -4.743929 -33.553031 -2.752756 0.000000 0.000000 0.000000 -0.852061 -0.690302 3.935466 6.951232 -3.771848 -9.604771 28.177995 -33.133193 -34.679292 -1.591181 35.848682 -3.795522 0.000000 0.000000 0.000000 
3.098289 36.229195 -2.185464 -179.874084 5.056055 179.970908 -2.566025 -1.631773 9.928315 -11.102626 -3.263399 -21.717567 8.999116 7.959722 11.881681 -5.591343 -0.149775 13.011260 0.000000 0.000000 0.000000 2.779503 -0.095605 8.077579 -0.627735 2.937464 -14.666685 -7.935654 1.776435 14.680663 8.399451 6.244068 9.017189 0.000000 0.000000 0.000000 1.691858 1.114036 1.868181 -4.468703 0.895525 -5.657401 1.291998 -3.874127 4.982157 -0.001024 -0.003972 0.006329 0.965042 -2.244443 7.039442 -2.127341 3.140409 7.432994 0.000000 0.000000 0.000000 2.135616 -1.365225 4.234759 3.146551 -0.955529 -5.905920 -21.139548 31.142384 -28.700875 -4.760012 -33.482393 -2.781773 0.000000 0.000000 0.000000 -0.903747 -0.705240 3.892674 6.946642 -3.711610 -9.704935 28.012698 -33.044776 -34.249789 -1.712110 36.113481 -3.919271 0.000000 0.000000 0.000000 
3.000726 36.241474 -2.170363 -179.970157 5.392381 179.927960 -2.757699 -1.649075 9.933928 -11.343810 -2.922339 -21.683581 9.063875 7.931555 11.830913 -5.550678 0.124607 13.010110 0.000000 0.000000 0.000000 2.609244 -0.076388 8.089853 -0.793746 2.773307 -15.064252 -7.858226 1.967733 15.736006 8.509059 6.224524 8.553807 0.000000 0.000000 0.000000 1.564095 1.232592 1.883415 -4.385039 0.893171 -5.753680 1.213696 -3.890776 4.980030 -0.013838 0.007102 0.008491 0.931442 -2.446381 7.004896 -2.226413 3.235654 7.550862 0.000000 0.000000 0.000000 2.134270 -1.433574 4.233211 3.202637 -0.909084 -6.093116 -21.000680 31.126948 -28.647104 -4.853735 -33.482711 -2.747166 0.000000 0.000000 0.000000 -0.919829 -0.767859 3.816807 7.001643 -3.690259 -9.658201 27.932383 -32.987771 -33.909700 -1.794759 36.353450 -3.967122 0.000000 0.000000 0.000000 
2.936596 36.242035 -2.212632 -179.949844 5.543216 179.958505 -2.756967 -1.737674 9.954493 -11.464481 -2.841751 -21.614892 9.147010 8.200982 11.763168 -5.699943 0.302197 12.952883 0.000000 0.000000 0.000000 2.503619 0.064631 8.112332 -0.923614 2.715735 -15.255852 -7.795204 2.047507 16.900110 8.532023 6.177425 7.774340 0.000000 0.000000 0.000000 1.502827 1.288421 1.735111 -4.304815 0.804513 -5.910214 1.175377 -3.951539 4.967194 -0.016452 -0.017751 -0.058102 0.890910 -2.401314 7.100184 -2.307508 3.355460 7.667671 0.000000 0.000000 0.000000 2.076235 -1.460873 4.257765 3.217716 -0.913728 -6.026249 -20.833996 30.924713 -28.485087 -4.879175 -33.525116 -2.742481 0.000000 0.000000 0.000000 -0.959759 -0.791819 3.921584 7.074229 -3.631160 -9.764113 27.791527 -32.999977 -33.666375 -1.858653 36.573710 -4.008816 0.000000 0.000000 0.000000 
2.905742 36.235447 -2.301455 -179.872280 5.850559 179.944913 -2.733762 -1.449888 9.980770 -11.474104 -2.892631 -21.646835 9.264255 8.359068 12.260188 -5.921249 0.356164 12.561742 0.000000 0.000000 0.000000 2.418136 0.412411 8.109909 -0.976207 2.796415 -15.146315 -7.796391 2.315344 18.116273 8.435121 5.962601 7.185785 0.000000 0.000000 0.000000 1.490697 1.399825 1.531020 -4.238078 0.771149 -6.068064 1.191329 -3.926491 4.960313 0.006993 0.027049 -0.006555 0.830888 -2.341423 7.075146 -2.368636 3.455228 7.864748 0.000000 0.000000 0.000000 2.032120 -1.476766 4.181597 3.147890 -1.020026 -6.041788 -20.566506 30.509915 -28.089016 -4.927521 -33.500155 -2.738406 0.000000 0.000000 0.000000 -1.012923 -0.818870 3.846349 7.065455 -3.582276 -9.827496 27.669289 -33.221914 -33.382276 -1.965222 36.729974 -4.123112 0.000000 0.000000 0.000000 
2.909734 36.226917 -2.413332 -179.930924 5.689261 -179.955103 -2.843722 -1.611383 9.993983 -11.426178 -2.917418 -21.672154 9.206379 8.362206 12.663079 -5.973342 0.504385 12.112279 0.000000 0.000000 0.000000 2.248254 0.384696 8.087396 -1.072021 2.964360 -14.839711 -7.728345 2.123465 18.655671 8.508803 6.001999 7.256886 0.000000 0.000000 0.000000 1.439260 1.424091 1.206237 -4.269547 0.674113 -6.285927 1.173497 -3.941155 4.948557 0.027912 0.017100 -0.006491 0.814637 -2.346620 7.137222 -2.386857 3.552950 8.068886 0.000000 0.000000 0.000000 2.028486 -1.526245 4.194963 3.039232 -1.208717 -6.022933 -20.438026 29.983287 -27.827103 -5.030345 -33.475222 -2.741631 0.000000 0.000000 0.000000 -1.016176 -0.909249 3.870099 7.068401 -3.469392 -9.806311 27.506338 -33.453959 -33.231391 -2.065236 36.755273 -4.260917 0.000000 0.000000 0.000000 
